<svg data-v-423bf9ae="" xmlns="http://www.w3.org/2000/svg" viewBox="0 0 409.41178026260707 60" class="font"><!----><!----><!----><g data-v-423bf9ae="" id="8122822e-e4fb-461a-baeb-7294ed9453a7" fill="white" transform="matrix(6.302521336710863,0,0,6.302521336710863,-2.647056694645187,-49.60084172181101)"><path d="M4.83 8.08L7.63 7.87L7.63 17.18L6.23 17.18L5.71 16.48Q4.98 17.39 3.43 17.39L3.43 17.39Q1.86 17.39 1.14 16.50Q0.42 15.61 0.42 13.68L0.42 13.68Q0.42 11.75 1.14 10.86Q1.86 9.97 3.43 9.97L3.43 9.97Q4.23 9.97 4.83 10.21L4.83 10.21L4.83 8.08ZM4.28 15.29Q4.59 15.29 4.71 15.20Q4.83 15.12 4.83 14.90L4.83 14.90L4.83 12.07L3.98 12.07Q3.67 12.07 3.55 12.15Q3.43 12.24 3.43 12.46L3.43 12.46L3.43 15.29L4.28 15.29ZM12.46 17.39Q10.56 17.39 9.65 16.48Q8.75 15.58 8.75 13.68L8.75 13.68Q8.75 11.76 9.65 10.86Q10.54 9.97 12.46 9.97L12.46 9.97Q14.38 9.97 15.27 10.86Q16.17 11.76 16.17 13.68L16.17 13.68Q16.17 15.60 15.27 16.49Q14.38 17.39 12.46 17.39L12.46 17.39ZM11.76 15.29L12.61 15.29Q12.92 15.29 13.04 15.20Q13.16 15.12 13.16 14.90L13.16 14.90L13.16 12.07L12.31 12.07Q12.00 12.07 11.88 12.15Q11.76 12.24 11.76 12.46L11.76 12.46L11.76 15.29ZM26.11 9.97Q27.09 9.97 27.65 10.39Q28.21 10.82 28.21 11.58L28.21 11.58L28.21 17.18L25.41 17.18L25.41 12.28L24.70 12.28Q24.40 12.28 24.28 12.37Q24.15 12.46 24.15 12.67L24.15 12.67L24.15 17.18L21.35 17.18L21.35 12.28L20.64 12.28Q20.34 12.28 20.22 12.37Q20.09 12.46 20.09 12.67L20.09 12.67L20.09 17.18L17.29 17.18L17.29 10.18L18.69 10.18L19.39 10.88Q20.65 9.97 22.05 9.97L22.05 9.97Q22.67 9.97 23.12 10.14Q23.58 10.30 23.83 10.63L23.83 10.63Q24.91 9.97 26.11 9.97L26.11 9.97ZM32.90 9.97Q34.57 9.97 35.34 10.56Q36.12 11.14 36.12 12.42L36.12 12.42L36.12 17.18L34.72 17.18L34.02 16.48Q33.49 16.93 32.88 17.16Q32.27 17.39 31.64 17.39L31.64 17.39Q30.37 17.39 29.78 16.81Q29.19 16.24 29.19 15.01L29.19 15.01Q29.19 14.15 29.55 13.65Q29.92 13.15 30.72 12.92Q31.53 12.70 32.90 12.70L32.90 12.70L33.32 12.70L33.32 12.07Q33.11 12.01 32.62 12.01L32.62 12.01Q31.32 12.01 29.85 12.38L29.85 12.38L29.51 10.44Q31.08 9.97 32.90 9.97L32.90 9.97ZM32.35 15.50Q32.90 15.50 33.11 15.39Q33.32 15.27 33.32 14.97L33.32 14.97L33.32 14.10L32.73 14.10Q32.19 14.10 31.98 14.22Q31.77 14.35 31.77 14.69L31.77 14.69L31.77 15.50L32.35 15.50ZM41.50 11.98L40.53 11.98L40.53 15.18Q40.94 15.25 41.36 15.27L41.36 15.27L41.23 17.16Q40.29 17.39 39.54 17.39L39.54 17.39Q38.61 17.39 38.17 17.02Q37.73 16.65 37.73 15.86L37.73 15.86L37.73 11.98L37.03 11.98L37.03 10.18L37.73 10.18L37.73 9.06L40.53 8.36L40.53 10.18L41.50 10.18L41.50 11.98ZM45.98 17.39Q44.07 17.39 43.17 16.48Q42.27 15.58 42.27 13.68L42.27 13.68Q42.27 11.76 43.16 10.86Q44.06 9.97 45.98 9.97L45.98 9.97Q47.89 9.97 48.79 10.86Q49.69 11.76 49.69 13.68L49.69 13.68Q49.69 15.60 48.79 16.49Q47.89 17.39 45.98 17.39L45.98 17.39ZM45.28 15.29L46.13 15.29Q46.44 15.29 46.56 15.20Q46.68 15.12 46.68 14.90L46.68 14.90L46.68 12.07L45.82 12.07Q45.51 12.07 45.40 12.15Q45.28 12.24 45.28 12.46L45.28 12.46L45.28 15.29ZM59.01 17.18L58.66 15.79L56.13 15.79L55.78 17.18L52.98 17.18L55.22 8.43L59.57 8.43L61.81 17.18L59.01 17.18ZM56.66 13.76L58.13 13.76L57.46 11.12L57.33 11.12L56.66 13.76ZM62.58 8.43L65.38 8.43L65.38 17.18L62.58 17.18L62.58 8.43Z"></path></g><!----><!----></svg>